<svg width="24" height="25" viewBox="0 0 24 25" fill="none" xmlns="http://www.w3.org/2000/svg">
<g id="fi-sr-add" clip-path="url(#clip0_25_1393)">
<path id="Vector" d="M12 0.0283203C9.62663 0.0283203 7.30655 0.732108 5.33316 2.05069C3.35977 3.36926 1.8217 5.24341 0.913451 7.43612C0.00519943 9.62883 -0.232441 12.0416 0.230582 14.3694C0.693605 16.6972 1.83649 18.8354 3.51472 20.5136C5.19295 22.1918 7.33115 23.3347 9.65892 23.7977C11.9867 24.2608 14.3995 24.0231 16.5922 23.1149C18.7849 22.2066 20.6591 20.6686 21.9776 18.6952C23.2962 16.7218 24 14.4017 24 12.0283C23.9966 8.84678 22.7312 5.79653 20.4815 3.54684C18.2318 1.29715 15.1815 0.0317614 12 0.0283203V0.0283203ZM16 13.0283H13V16.0283C13 16.2935 12.8946 16.5479 12.7071 16.7354C12.5196 16.923 12.2652 17.0283 12 17.0283C11.7348 17.0283 11.4804 16.923 11.2929 16.7354C11.1054 16.5479 11 16.2935 11 16.0283V13.0283H8.00001C7.73479 13.0283 7.48043 12.923 7.2929 12.7354C7.10536 12.5479 7.00001 12.2935 7.00001 12.0283C7.00001 11.7631 7.10536 11.5088 7.2929 11.3212C7.48043 11.1337 7.73479 11.0283 8.00001 11.0283H11V8.02832C11 7.7631 11.1054 7.50875 11.2929 7.32121C11.4804 7.13368 11.7348 7.02832 12 7.02832C12.2652 7.02832 12.5196 7.13368 12.7071 7.32121C12.8946 7.50875 13 7.7631 13 8.02832V11.0283H16C16.2652 11.0283 16.5196 11.1337 16.7071 11.3212C16.8946 11.5088 17 11.7631 17 12.0283C17 12.2935 16.8946 12.5479 16.7071 12.7354C16.5196 12.923 16.2652 13.0283 16 13.0283Z" fill="#4D47C3"/>
</g>
<defs>
<clipPath id="clip0_25_1393">
<rect width="24" height="24" fill="white" transform="translate(0 0.0283203)"/>
</clipPath>
</defs>
</svg>
