<svg width="25" height="25" viewBox="0 0 25 25" fill="none" xmlns="http://www.w3.org/2000/svg">
<path d="M13.826 12.1906L20.126 5.90062C20.3143 5.71231 20.42 5.45692 20.42 5.19062C20.42 4.92431 20.3143 4.66892 20.126 4.48062C19.9376 4.29231 19.6823 4.18652 19.416 4.18652C19.1497 4.18652 18.8943 4.29231 18.706 4.48062L12.416 10.7806L6.12595 4.48062C5.93765 4.29231 5.68226 4.18652 5.41595 4.18652C5.14965 4.18652 4.89426 4.29231 4.70595 4.48062C4.51765 4.66892 4.41186 4.92431 4.41186 5.19062C4.41186 5.45692 4.51765 5.71231 4.70595 5.90062L11.006 12.1906L4.70595 18.4806C4.61223 18.5736 4.53783 18.6842 4.48706 18.806C4.43629 18.9279 4.41016 19.0586 4.41016 19.1906C4.41016 19.3226 4.43629 19.4533 4.48706 19.5752C4.53783 19.6971 4.61223 19.8077 4.70595 19.9006C4.79892 19.9943 4.90952 20.0687 5.03138 20.1195C5.15324 20.1703 5.28394 20.1964 5.41595 20.1964C5.54797 20.1964 5.67867 20.1703 5.80053 20.1195C5.92239 20.0687 6.03299 19.9943 6.12595 19.9006L12.416 13.6006L18.706 19.9006C18.7989 19.9943 18.9095 20.0687 19.0314 20.1195C19.1532 20.1703 19.2839 20.1964 19.416 20.1964C19.548 20.1964 19.6787 20.1703 19.8005 20.1195C19.9224 20.0687 20.033 19.9943 20.126 19.9006C20.2197 19.8077 20.2941 19.6971 20.3448 19.5752C20.3956 19.4533 20.4218 19.3226 20.4218 19.1906C20.4218 19.0586 20.3956 18.9279 20.3448 18.806C20.2941 18.6842 20.2197 18.5736 20.126 18.4806L13.826 12.1906Z" fill="black"/>
</svg>
