<svg width="25" height="28" viewBox="0 0 25 28" fill="none" xmlns="http://www.w3.org/2000/svg">
<path d="M22.4258 12.2559L22.4258 11.5059L20.9258 11.5059L20.9258 12.2559L22.4258 12.2559ZM20.9258 17.2559C20.9258 17.6701 21.2616 18.0059 21.6758 18.0059C22.09 18.0059 22.4258 17.6701 22.4258 17.2559L20.9258 17.2559ZM20.9258 12.2559L20.9258 17.2559L22.4258 17.2559L22.4258 12.2559L20.9258 12.2559Z" fill="#756EF7"/>
<path d="M6.67578 13.2559V20.5264V20.5264C10.1144 23.5234 15.2372 23.5234 18.6758 20.5264V20.5264V13.2559" stroke="#756EF7" stroke-width="1.5"/>
<path d="M10.2878 8.24645C11.7876 7.48042 13.5639 7.48043 15.0638 8.24645L22.0311 11.805L15.0637 15.3635C13.5639 16.1295 11.7876 16.1295 10.2878 15.3635L3.32049 11.805L10.2878 8.24645Z" stroke="#756EF7" stroke-width="1.5"/>
</svg>
