<svg width="25" height="27" viewBox="0 0 25 27" fill="none" xmlns="http://www.w3.org/2000/svg">
<g id="Icon Education">
<path id="Vector 76" d="M21.8613 11.916L21.8613 11.166L20.3613 11.166L20.3613 11.916L21.8613 11.916ZM20.3613 16.916C20.3613 17.3302 20.6971 17.666 21.1113 17.666C21.5255 17.666 21.8613 17.3302 21.8613 16.916L20.3613 16.916ZM20.3613 11.916L20.3613 16.916L21.8613 16.916L21.8613 11.916L20.3613 11.916Z" fill="#756EF7"/>
<path id="Rectangle 165" d="M6.11133 12.916V20.1866V20.1866C9.54995 23.1836 14.6727 23.1836 18.1113 20.1866V20.1866V12.916" stroke="#756EF7" stroke-width="1.5"/>
<path id="Rectangle 164" d="M9.72336 7.90661C11.2232 7.14058 12.9995 7.14058 14.4993 7.90661L21.4666 11.4651L14.4993 15.0236C12.9995 15.7897 11.2232 15.7897 9.72336 15.0236L2.75603 11.4651L9.72336 7.90661Z" stroke="#756EF7" stroke-width="1.5"/>
</g>
</svg>
