<svg width="25" height="25" viewBox="0 0 25 25" fill="none" xmlns="http://www.w3.org/2000/svg">
<g id="Icon Skill">
<circle id="Ellipse 69" cx="12.9609" cy="4.83496" r="1.25" stroke="#4D47C3" stroke-width="1.5"/>
<circle id="Ellipse 71" cx="20.9609" cy="12.835" r="1.25" transform="rotate(90 20.9609 12.835)" stroke="#4D47C3" stroke-width="1.5"/>
<circle id="Ellipse 73" cx="18.6169" cy="18.4922" r="1.25" transform="rotate(135 18.6169 18.4922)" stroke="#4D47C3" stroke-width="1.5"/>
<circle id="Ellipse 75" cx="7.30469" cy="18.4919" r="1.25" transform="rotate(-135 7.30469 18.4919)" stroke="#4D47C3" stroke-width="1.5"/>
<path id="Vector 77" d="M12.9609 6.33496V8.33496" stroke="#4D47C3" stroke-width="1.5" stroke-linecap="round"/>
<path id="Vector 79" d="M19.4609 12.835L17.4609 12.835" stroke="#4D47C3" stroke-width="1.5" stroke-linecap="round"/>
<path id="Vector 81" d="M17.5566 17.4316L16.1424 16.0174" stroke="#4D47C3" stroke-width="1.5" stroke-linecap="round"/>
<path id="Vector 83" d="M8.36523 17.4307L9.77945 16.0165" stroke="#4D47C3" stroke-width="1.5" stroke-linecap="round"/>
<path id="Vector 78" d="M12.9609 17.835V18.835" stroke="#4D47C3" stroke-width="1.5" stroke-linecap="round"/>
<path id="Vector 80" d="M7.96094 12.835L6.96094 12.835" stroke="#4D47C3" stroke-width="1.5" stroke-linecap="round"/>
<path id="Vector 82" d="M9.42578 9.2998L8.71867 8.5927" stroke="#4D47C3" stroke-width="1.5" stroke-linecap="round"/>
<path id="Vector 84" d="M16.4961 9.29883L17.2032 8.59172" stroke="#4D47C3" stroke-width="1.5" stroke-linecap="round"/>
<circle id="Ellipse 70" cx="12.9609" cy="20.835" r="1.25" stroke="#4D47C3" stroke-width="1.5"/>
<circle id="Ellipse 72" cx="4.96094" cy="12.835" r="1.25" transform="rotate(90 4.96094 12.835)" stroke="#4D47C3" stroke-width="1.5"/>
<circle id="Ellipse 74" cx="7.30439" cy="7.17773" r="1.25" transform="rotate(135 7.30439 7.17773)" stroke="#4D47C3" stroke-width="1.5"/>
<circle id="Ellipse 76" cx="18.6172" cy="7.17841" r="1.25" transform="rotate(-135 18.6172 7.17841)" stroke="#4D47C3" stroke-width="1.5"/>
<g id="Group 31">
<circle id="Ellipse 65" cx="12.9609" cy="12.835" r="4.25" stroke="#4D47C3" stroke-width="1.5"/>
<circle id="Ellipse 66" cx="12.9609" cy="11.751" r="1.25" stroke="#4D47C3" stroke-width="1.5"/>
<path id="Ellipse 67" d="M15.5476 16.073C14.9845 15.2467 14.0358 14.7041 12.9603 14.7041C11.8849 14.7041 10.9362 15.2467 10.373 16.073" stroke="#4D47C3" stroke-width="1.5"/>
</g>
</g>
</svg>
