<svg width="34" height="45" viewBox="0 0 34 45" fill="none" xmlns="http://www.w3.org/2000/svg">
<rect width="34" height="45" fill="#1E1E1E"/>
<g id="Desktop - 16" clip-path="url(#clip0_0_1)">
<rect width="1440" height="917" transform="translate(-663 -726)" fill="#F3F7FB"/>
<rect id="Rectangle 31" x="-21.4258" y="-86.1592" width="698.715" height="190.039" rx="4" fill="white"/>
<g id="Jamet kudasi - CV - UI/UX Designer">
<g id="PDF">
<path id="Rectangle 64" d="M0.28125 6.6709C0.28125 3.35719 2.96754 0.670898 6.28125 0.670898H20.7773L33.2783 13.6709V38.6709C33.2783 41.9846 30.592 44.6709 27.2783 44.6709H6.28125C2.96754 44.6709 0.28125 41.9846 0.28125 38.6709V6.6709Z" fill="#FF464B"/>
<path id="Vector 38" d="M20.7773 13.6709V0.670898L33.2773 13.6709H20.7773Z" fill="#FF8689"/>
<path id="PDF_2" d="M10.0195 27.5322C10.9245 27.5322 11.6016 27.7292 12.0508 28.123C12.5033 28.5169 12.7295 29.0768 12.7295 29.8027C12.7295 30.1283 12.6823 30.4408 12.5879 30.7402C12.4967 31.0397 12.3454 31.3066 12.1338 31.541C11.9255 31.7754 11.6471 31.9609 11.2988 32.0977C10.9538 32.2344 10.5273 32.3027 10.0195 32.3027H9.47754V34.6709H7.54883V27.5322H10.0195ZM9.97559 29.0898H9.47754V30.7305H9.8584C10.0244 30.7305 10.179 30.7028 10.3223 30.6475C10.4655 30.5889 10.5794 30.4961 10.6641 30.3691C10.752 30.2389 10.7959 30.0664 10.7959 29.8516C10.7959 29.627 10.7292 29.4447 10.5957 29.3047C10.4622 29.1615 10.2555 29.0898 9.97559 29.0898ZM19.7268 30.9502C19.7268 31.7803 19.5721 32.4704 19.2629 33.0205C18.9536 33.5706 18.5174 33.984 17.9543 34.2607C17.3944 34.5342 16.7352 34.6709 15.9768 34.6709H13.6672V27.5322H16.1379C16.9061 27.5322 17.5572 27.6641 18.091 27.9277C18.6249 28.1914 19.0301 28.5771 19.3068 29.085C19.5868 29.5928 19.7268 30.2145 19.7268 30.9502ZM17.7248 31.0186C17.7248 30.5856 17.6662 30.2275 17.549 29.9443C17.4351 29.6579 17.2626 29.4447 17.0314 29.3047C16.8003 29.1615 16.509 29.0898 16.1574 29.0898H15.5959V33.0889H16.0256C16.6115 33.0889 17.0412 32.9196 17.3146 32.5811C17.5881 32.2393 17.7248 31.7184 17.7248 31.0186ZM22.7104 34.6709H20.8109V27.5322H25.0297V29.0801H22.7104V30.4424H24.849V31.9902H22.7104V34.6709Z" fill="white"/>
</g>
</g>
</g>
<defs>
<clipPath id="clip0_0_1">
<rect width="1440" height="917" fill="white" transform="translate(-663 -726)"/>
</clipPath>
</defs>
</svg>
