<svg width="26" height="26" viewBox="0 0 26 26" fill="none" xmlns="http://www.w3.org/2000/svg">
<g clip-path="url(#clip0_531_3531)">
<path d="M13.7528 7.97311H11.6562V12.1664H7.46285V14.2631H11.6562V18.4564H13.7528V14.2631H17.9462V12.1664H13.7528V7.97311ZM12.7045 2.73145C6.92296 2.73145 2.22119 7.43322 2.22119 13.2148C2.22119 18.9963 6.92296 23.6981 12.7045 23.6981C18.4861 23.6981 23.1878 18.9963 23.1878 13.2148C23.1878 7.43322 18.4861 2.73145 12.7045 2.73145ZM12.7045 21.6014C8.08137 21.6014 4.31786 17.8379 4.31786 13.2148C4.31786 8.59162 8.08137 4.82811 12.7045 4.82811C17.3277 4.82811 21.0912 8.59162 21.0912 13.2148C21.0912 17.8379 17.3277 21.6014 12.7045 21.6014Z" fill="#4D47C3"/>
</g>
<defs>
<clipPath id="clip0_531_3531">
<rect width="25.16" height="25.16" fill="white" transform="translate(0.123535 0.634766)"/>
</clipPath>
</defs>
</svg>
