<svg width="15" height="14" viewBox="0 0 15 14" fill="none" xmlns="http://www.w3.org/2000/svg">
<g id="fi-rr-camera" clip-path="url(#clip0_18_1030)">
<path id="Vector" d="M11.4836 2.31084H11.1928L9.94283 0.689976C9.78174 0.482679 9.57558 0.31476 9.33997 0.19894C9.10436 0.0831204 8.84549 0.0224362 8.58296 0.0214844L6.37144 0.0214844C6.10891 0.0224362 5.85003 0.0831204 5.61442 0.19894C5.37882 0.31476 5.17266 0.482679 5.01156 0.689976L3.76157 2.31084H3.47083C2.71214 2.31175 1.98478 2.61354 1.44831 3.15001C0.911831 3.68649 0.61004 4.41384 0.609131 5.17253L0.609131 10.8959C0.61004 11.6546 0.911831 12.382 1.44831 12.9184C1.98478 13.4549 2.71214 13.7567 3.47083 13.7576H11.4836C12.2423 13.7567 12.9696 13.4549 13.5061 12.9184C14.0426 12.382 14.3444 11.6546 14.3453 10.8959V5.17253C14.3444 4.41384 14.0426 3.68649 13.5061 3.15001C12.9696 2.61354 12.2423 2.31175 11.4836 2.31084ZM5.91815 1.38937C5.97176 1.32015 6.04045 1.26407 6.119 1.22539C6.19755 1.18671 6.28388 1.16645 6.37144 1.16616H8.58296C8.6705 1.16654 8.7568 1.18683 8.83534 1.2255C8.91387 1.26418 8.98258 1.32022 9.03625 1.38937L9.74709 2.31084H5.2073L5.91815 1.38937ZM13.2006 10.8959C13.2006 11.3513 13.0197 11.788 12.6977 12.11C12.3757 12.432 11.939 12.6129 11.4836 12.6129H3.47083C3.01544 12.6129 2.57871 12.432 2.25671 12.11C1.93471 11.788 1.75381 11.3513 1.75381 10.8959V5.17253C1.75381 4.71715 1.93471 4.28042 2.25671 3.95842C2.57871 3.63642 3.01544 3.45552 3.47083 3.45552H11.4836C11.939 3.45552 12.3757 3.63642 12.6977 3.95842C13.0197 4.28042 13.2006 4.71715 13.2006 5.17253V10.8959Z" fill="#4D47C3"/>
<path id="Vector_2" d="M7.47725 4.60059C6.79806 4.60059 6.13412 4.80199 5.5694 5.17933C5.00468 5.55666 4.56453 6.09298 4.30461 6.72047C4.0447 7.34796 3.9767 8.03843 4.1092 8.70457C4.2417 9.3707 4.56876 9.98259 5.04902 10.4628C5.52928 10.9431 6.14116 11.2702 6.8073 11.4027C7.47344 11.5352 8.16391 11.4672 8.7914 11.2073C9.41888 10.9473 9.95521 10.5072 10.3325 9.94247C10.7099 9.37774 10.9113 8.71381 10.9113 8.03462C10.9104 7.12414 10.5483 6.2512 9.90447 5.60739C9.26066 4.96359 8.38773 4.6015 7.47725 4.60059ZM7.47725 10.324C7.02446 10.324 6.58183 10.1897 6.20535 9.93815C5.82887 9.68659 5.53543 9.32904 5.36216 8.91072C5.18888 8.49239 5.14355 8.03208 5.23188 7.58799C5.32022 7.1439 5.53826 6.73597 5.85843 6.4158C6.1786 6.09563 6.58653 5.87759 7.03062 5.78925C7.47471 5.70092 7.93502 5.74625 8.35335 5.91953C8.77167 6.09281 9.12922 6.38624 9.38078 6.76272C9.63234 7.1392 9.7666 7.58183 9.7666 8.03462C9.7666 8.64179 9.5254 9.2241 9.09607 9.65344C8.66673 10.0828 8.08442 10.324 7.47725 10.324Z" fill="#4D47C3"/>
</g>
<defs>
<clipPath id="clip0_18_1030">
<rect width="13.7361" height="13.7361" fill="white" transform="translate(0.609131 0.0214844)"/>
</clipPath>
</defs>
</svg>
