<svg width="213" height="29" viewBox="0 0 213 29" fill="none" xmlns="http://www.w3.org/2000/svg">
<rect width="213" height="29" fill="#1E1E1E"/>
<g id="Desktop - 11" clip-path="url(#clip0_0_1)">
<rect width="1440" height="917" transform="translate(-24 -53.0352)" fill="white"/>
<g id="Rectangle 17" filter="url(#filter0_d_0_1)">
<rect x="-24" y="-53" width="272.439" height="909.632" fill="white"/>
</g>
<g id="Group 1000001879">
<g id="Group 1000001851">
<g id="CloudActiveLabs">
<mask id="path-2-outside-1_0_1" maskUnits="userSpaceOnUse" x="105.415" y="0.116211" width="107" height="29" fill="black">
<rect fill="white" x="105.415" y="0.116211" width="107" height="29"/>
<path d="M119.933 3.78538L130.877 26.963L127.212 26.1674L124.653 21.4281H113.674L111.362 26.1674L107.415 26.963L118.359 3.78538H119.933ZM119.198 9.04359L114.968 18.4876H123.359L119.198 9.04359Z"/>
<path d="M142.101 9.07271C143.383 9.07271 144.49 9.28027 145.422 9.69539C146.355 10.0875 146.767 10.5288 147.116 10.8517L147.345 13.639C146.693 13.1547 145.947 12.7396 145.108 12.3937C144.269 12.0247 143.266 11.8402 142.101 11.8402C140.865 11.8402 139.781 12.14 138.849 12.7396C137.916 13.3162 137.194 14.0888 136.681 15.0574C136.192 16.0029 135.947 17.0407 135.947 18.1708C135.947 19.2778 136.192 20.3156 136.681 21.2842C137.194 22.2298 137.916 23.0024 138.849 23.602C139.781 24.1785 140.865 24.4668 142.101 24.4668C143.266 24.4668 144.269 24.2938 145.108 23.9479C145.947 23.5789 146.693 23.1523 147.345 22.6679L146.748 25.6213C146.398 25.9673 146.355 26.2541 145.422 26.6462C144.49 27.0383 143.383 27.2343 142.101 27.2343C140.329 27.2343 138.756 26.8192 137.38 25.9889C136.005 25.1587 134.921 24.0632 134.129 22.7025C133.359 21.3188 132.975 19.8082 132.975 18.1708C132.975 16.5334 133.359 15.0228 134.129 13.639C134.921 12.2553 136.005 11.1483 137.38 10.3181C138.756 9.48783 140.329 9.07271 142.101 9.07271Z"/>
<path d="M156.891 4.43719V9.41865H160.755L161.996 12.0823H156.891V22.2182C156.891 22.9332 157.078 23.4982 157.45 23.9133C157.823 24.3284 158.395 24.536 159.164 24.536C159.863 24.536 160.446 24.4553 160.912 24.2938C161.378 24.1093 162.248 23.8231 162.598 23.6156L162.136 26.0235C161.67 26.3925 161.168 26.6808 160.632 26.8884C160.12 27.119 159.42 27.2343 158.534 27.2343C157.043 27.2343 155.912 26.7961 155.143 25.9197C154.397 25.0203 154.024 23.8326 154.024 22.3566V12.0823H150.667V11.2521C151.809 10.7447 152.765 9.91449 153.534 8.76137C154.304 7.58519 154.98 6.1438 155.562 4.43719H156.891Z"/>
<path d="M170.003 1.11621C170.679 1.11621 171.238 1.35837 171.681 1.84267C172.148 2.30392 172.381 2.84588 172.381 3.46857C172.381 4.06819 172.148 4.61015 171.681 5.09446C171.238 5.57877 170.679 5.82092 170.003 5.82092C169.327 5.82092 168.756 5.57877 168.29 5.09446C167.847 4.61015 167.625 4.06819 167.625 3.46857C167.625 2.84588 167.847 2.30392 168.29 1.84267C168.756 1.35837 169.327 1.11621 170.003 1.11621ZM171.786 9.41865V26.7154H168.919V12.0823H166.157V9.41865H171.786Z"/>
<path d="M193.395 9.41865L185.178 26.7154H183.395L175.528 9.41865L178.954 10.1797L184.234 22.149L189.199 10.1797L193.395 9.41865Z"/>
<path d="M203.745 9.07271C205.54 9.07271 207.031 9.44171 208.22 10.1797C209.409 10.9177 210.295 11.9209 210.878 13.1893C211.484 14.4578 211.787 15.8876 211.787 17.4789V19.174H198.36C198.5 20.1426 198.838 21.5258 199.374 22.333C199.91 23.1401 200.609 23.7859 201.472 24.2702C202.334 24.7314 203.325 24.9621 204.444 24.9621C205.703 24.9621 206.88 24.6507 207.975 24.028C209.071 23.3823 209.992 22.6789 210.738 21.9178L210.492 25.2049C210.166 25.597 209.887 25.8038 209.234 26.242C208.605 26.6572 207.871 27.0031 207.031 27.2798C206.216 27.5796 205.353 27.7295 204.444 27.7295C202.672 27.7295 201.099 27.3144 199.724 26.4842C198.348 25.6539 197.264 24.5585 196.472 23.1978C195.703 21.8141 195.318 19.8082 195.318 18.1708C195.318 16.5334 195.679 15.0228 196.402 13.639C197.125 12.2553 198.115 11.1483 199.374 10.3181C200.656 9.48783 202.113 9.07271 203.745 9.07271ZM203.745 11.8402C202.299 11.8402 201.111 12.3245 200.178 13.2931C199.246 14.2387 198.663 15.3918 198.43 16.7525H208.954C208.838 15.6224 208.512 14.6999 207.975 13.985C207.463 13.2701 206.833 12.7396 206.087 12.3937C205.341 12.0247 204.56 11.8402 203.745 11.8402Z"/>
</mask>
<path d="M119.933 3.78538L130.877 26.963L127.212 26.1674L124.653 21.4281H113.674L111.362 26.1674L107.415 26.963L118.359 3.78538H119.933ZM119.198 9.04359L114.968 18.4876H123.359L119.198 9.04359Z" fill="#FF5C00"/>
<path d="M142.101 9.07271C143.383 9.07271 144.49 9.28027 145.422 9.69539C146.355 10.0875 146.767 10.5288 147.116 10.8517L147.345 13.639C146.693 13.1547 145.947 12.7396 145.108 12.3937C144.269 12.0247 143.266 11.8402 142.101 11.8402C140.865 11.8402 139.781 12.14 138.849 12.7396C137.916 13.3162 137.194 14.0888 136.681 15.0574C136.192 16.0029 135.947 17.0407 135.947 18.1708C135.947 19.2778 136.192 20.3156 136.681 21.2842C137.194 22.2298 137.916 23.0024 138.849 23.602C139.781 24.1785 140.865 24.4668 142.101 24.4668C143.266 24.4668 144.269 24.2938 145.108 23.9479C145.947 23.5789 146.693 23.1523 147.345 22.6679L146.748 25.6213C146.398 25.9673 146.355 26.2541 145.422 26.6462C144.49 27.0383 143.383 27.2343 142.101 27.2343C140.329 27.2343 138.756 26.8192 137.38 25.9889C136.005 25.1587 134.921 24.0632 134.129 22.7025C133.359 21.3188 132.975 19.8082 132.975 18.1708C132.975 16.5334 133.359 15.0228 134.129 13.639C134.921 12.2553 136.005 11.1483 137.38 10.3181C138.756 9.48783 140.329 9.07271 142.101 9.07271Z" fill="#FF5C00"/>
<path d="M156.891 4.43719V9.41865H160.755L161.996 12.0823H156.891V22.2182C156.891 22.9332 157.078 23.4982 157.45 23.9133C157.823 24.3284 158.395 24.536 159.164 24.536C159.863 24.536 160.446 24.4553 160.912 24.2938C161.378 24.1093 162.248 23.8231 162.598 23.6156L162.136 26.0235C161.67 26.3925 161.168 26.6808 160.632 26.8884C160.12 27.119 159.42 27.2343 158.534 27.2343C157.043 27.2343 155.912 26.7961 155.143 25.9197C154.397 25.0203 154.024 23.8326 154.024 22.3566V12.0823H150.667V11.2521C151.809 10.7447 152.765 9.91449 153.534 8.76137C154.304 7.58519 154.98 6.1438 155.562 4.43719H156.891Z" fill="#FF5C00"/>
<path d="M170.003 1.11621C170.679 1.11621 171.238 1.35837 171.681 1.84267C172.148 2.30392 172.381 2.84588 172.381 3.46857C172.381 4.06819 172.148 4.61015 171.681 5.09446C171.238 5.57877 170.679 5.82092 170.003 5.82092C169.327 5.82092 168.756 5.57877 168.29 5.09446C167.847 4.61015 167.625 4.06819 167.625 3.46857C167.625 2.84588 167.847 2.30392 168.29 1.84267C168.756 1.35837 169.327 1.11621 170.003 1.11621ZM171.786 9.41865V26.7154H168.919V12.0823H166.157V9.41865H171.786Z" fill="#FF5C00"/>
<path d="M193.395 9.41865L185.178 26.7154H183.395L175.528 9.41865L178.954 10.1797L184.234 22.149L189.199 10.1797L193.395 9.41865Z" fill="#FF5C00"/>
<path d="M203.745 9.07271C205.54 9.07271 207.031 9.44171 208.22 10.1797C209.409 10.9177 210.295 11.9209 210.878 13.1893C211.484 14.4578 211.787 15.8876 211.787 17.4789V19.174H198.36C198.5 20.1426 198.838 21.5258 199.374 22.333C199.91 23.1401 200.609 23.7859 201.472 24.2702C202.334 24.7314 203.325 24.9621 204.444 24.9621C205.703 24.9621 206.88 24.6507 207.975 24.028C209.071 23.3823 209.992 22.6789 210.738 21.9178L210.492 25.2049C210.166 25.597 209.887 25.8038 209.234 26.242C208.605 26.6572 207.871 27.0031 207.031 27.2798C206.216 27.5796 205.353 27.7295 204.444 27.7295C202.672 27.7295 201.099 27.3144 199.724 26.4842C198.348 25.6539 197.264 24.5585 196.472 23.1978C195.703 21.8141 195.318 19.8082 195.318 18.1708C195.318 16.5334 195.679 15.0228 196.402 13.639C197.125 12.2553 198.115 11.1483 199.374 10.3181C200.656 9.48783 202.113 9.07271 203.745 9.07271ZM203.745 11.8402C202.299 11.8402 201.111 12.3245 200.178 13.2931C199.246 14.2387 198.663 15.3918 198.43 16.7525H208.954C208.838 15.6224 208.512 14.6999 207.975 13.985C207.463 13.2701 206.833 12.7396 206.087 12.3937C205.341 12.0247 204.56 11.8402 203.745 11.8402Z" fill="#FF5C00"/>
<path d="M119.933 3.78538L130.877 26.963L127.212 26.1674L124.653 21.4281H113.674L111.362 26.1674L107.415 26.963L118.359 3.78538H119.933ZM119.198 9.04359L114.968 18.4876H123.359L119.198 9.04359Z" stroke="#FF5C00" stroke-width="1.23815" mask="url(#path-2-outside-1_0_1)"/>
<path d="M142.101 9.07271C143.383 9.07271 144.49 9.28027 145.422 9.69539C146.355 10.0875 146.767 10.5288 147.116 10.8517L147.345 13.639C146.693 13.1547 145.947 12.7396 145.108 12.3937C144.269 12.0247 143.266 11.8402 142.101 11.8402C140.865 11.8402 139.781 12.14 138.849 12.7396C137.916 13.3162 137.194 14.0888 136.681 15.0574C136.192 16.0029 135.947 17.0407 135.947 18.1708C135.947 19.2778 136.192 20.3156 136.681 21.2842C137.194 22.2298 137.916 23.0024 138.849 23.602C139.781 24.1785 140.865 24.4668 142.101 24.4668C143.266 24.4668 144.269 24.2938 145.108 23.9479C145.947 23.5789 146.693 23.1523 147.345 22.6679L146.748 25.6213C146.398 25.9673 146.355 26.2541 145.422 26.6462C144.49 27.0383 143.383 27.2343 142.101 27.2343C140.329 27.2343 138.756 26.8192 137.38 25.9889C136.005 25.1587 134.921 24.0632 134.129 22.7025C133.359 21.3188 132.975 19.8082 132.975 18.1708C132.975 16.5334 133.359 15.0228 134.129 13.639C134.921 12.2553 136.005 11.1483 137.38 10.3181C138.756 9.48783 140.329 9.07271 142.101 9.07271Z" stroke="#FF5C00" stroke-width="1.23815" mask="url(#path-2-outside-1_0_1)"/>
<path d="M156.891 4.43719V9.41865H160.755L161.996 12.0823H156.891V22.2182C156.891 22.9332 157.078 23.4982 157.45 23.9133C157.823 24.3284 158.395 24.536 159.164 24.536C159.863 24.536 160.446 24.4553 160.912 24.2938C161.378 24.1093 162.248 23.8231 162.598 23.6156L162.136 26.0235C161.67 26.3925 161.168 26.6808 160.632 26.8884C160.12 27.119 159.42 27.2343 158.534 27.2343C157.043 27.2343 155.912 26.7961 155.143 25.9197C154.397 25.0203 154.024 23.8326 154.024 22.3566V12.0823H150.667V11.2521C151.809 10.7447 152.765 9.91449 153.534 8.76137C154.304 7.58519 154.98 6.1438 155.562 4.43719H156.891Z" stroke="#FF5C00" stroke-width="1.23815" mask="url(#path-2-outside-1_0_1)"/>
<path d="M170.003 1.11621C170.679 1.11621 171.238 1.35837 171.681 1.84267C172.148 2.30392 172.381 2.84588 172.381 3.46857C172.381 4.06819 172.148 4.61015 171.681 5.09446C171.238 5.57877 170.679 5.82092 170.003 5.82092C169.327 5.82092 168.756 5.57877 168.29 5.09446C167.847 4.61015 167.625 4.06819 167.625 3.46857C167.625 2.84588 167.847 2.30392 168.29 1.84267C168.756 1.35837 169.327 1.11621 170.003 1.11621ZM171.786 9.41865V26.7154H168.919V12.0823H166.157V9.41865H171.786Z" stroke="#FF5C00" stroke-width="1.23815" mask="url(#path-2-outside-1_0_1)"/>
<path d="M193.395 9.41865L185.178 26.7154H183.395L175.528 9.41865L178.954 10.1797L184.234 22.149L189.199 10.1797L193.395 9.41865Z" stroke="#FF5C00" stroke-width="1.23815" mask="url(#path-2-outside-1_0_1)"/>
<path d="M203.745 9.07271C205.54 9.07271 207.031 9.44171 208.22 10.1797C209.409 10.9177 210.295 11.9209 210.878 13.1893C211.484 14.4578 211.787 15.8876 211.787 17.4789V19.174H198.36C198.5 20.1426 198.838 21.5258 199.374 22.333C199.91 23.1401 200.609 23.7859 201.472 24.2702C202.334 24.7314 203.325 24.9621 204.444 24.9621C205.703 24.9621 206.88 24.6507 207.975 24.028C209.071 23.3823 209.992 22.6789 210.738 21.9178L210.492 25.2049C210.166 25.597 209.887 25.8038 209.234 26.242C208.605 26.6572 207.871 27.0031 207.031 27.2798C206.216 27.5796 205.353 27.7295 204.444 27.7295C202.672 27.7295 201.099 27.3144 199.724 26.4842C198.348 25.6539 197.264 24.5585 196.472 23.1978C195.703 21.8141 195.318 19.8082 195.318 18.1708C195.318 16.5334 195.679 15.0228 196.402 13.639C197.125 12.2553 198.115 11.1483 199.374 10.3181C200.656 9.48783 202.113 9.07271 203.745 9.07271ZM203.745 11.8402C202.299 11.8402 201.111 12.3245 200.178 13.2931C199.246 14.2387 198.663 15.3918 198.43 16.7525H208.954C208.838 15.6224 208.512 14.6999 207.975 13.985C207.463 13.2701 206.833 12.7396 206.087 12.3937C205.341 12.0247 204.56 11.8402 203.745 11.8402Z" stroke="#FF5C00" stroke-width="1.23815" mask="url(#path-2-outside-1_0_1)"/>
</g>
<path id="CloudActiveLabs_2" d="M20.7706 5.84311V5.70648L20.6697 5.61441C19.8306 4.84907 18.8499 4.22945 17.7308 3.75425C16.6119 3.2692 15.1863 3.03519 13.4694 3.03519C11.6689 3.03519 10.0036 3.36612 8.47761 4.03181C6.95835 4.67145 5.62667 5.56084 4.48507 6.69966C3.343 7.83895 2.45109 9.16808 1.80974 10.6846L1.80973 10.6846L1.8088 10.6868C1.18949 12.1838 0.880893 13.7858 0.880893 15.4896C0.880893 17.1936 1.18949 18.8064 1.80815 20.3256L1.8081 20.3256L1.81043 20.331C2.45197 21.8243 3.3438 23.1412 4.48507 24.2796C5.6263 25.4181 6.95733 26.3187 8.47573 26.9814L8.47949 26.983C10.0051 27.625 11.6697 27.9441 13.4694 27.9441C15.1929 27.9441 16.7282 27.6851 18.0696 27.1594L18.0722 27.1583C19.417 26.617 20.5168 25.9759 21.3618 25.2293L21.4663 25.1369V24.9974V21.8744V21.2456L20.968 21.6291C20.1794 22.236 19.157 22.8379 17.8952 23.433C16.694 23.9875 15.2223 24.2714 13.4694 24.2714C11.7794 24.2714 10.2804 23.89 8.96428 23.1338C7.64221 22.3511 6.60262 21.3024 5.84132 19.9846C5.08274 18.6714 4.70015 17.1759 4.70015 15.4896C4.70015 13.8034 5.08274 12.3079 5.84132 10.9947L5.84244 10.9928C6.60392 9.65225 7.64282 8.60511 8.96253 7.84645C10.2791 7.0896 11.7786 6.70784 13.4694 6.70784C14.6233 6.70784 15.5893 6.8773 16.3769 7.20463L16.3768 7.20479L16.3864 7.2084C17.2247 7.52485 17.9429 7.89522 18.544 8.31724L18.544 8.31728L18.5484 8.32023C19.1955 8.75831 19.7724 9.16118 20.2793 9.52893L20.7706 9.88538V9.27839V5.84311Z" fill="#006180" stroke="#006180" stroke-width="0.619074"/>
<path id="CloudActiveLabs_3" d="M29.1326 2.60254V2.13431L28.7018 2.31774L25.8494 3.53224L25.6612 3.6124V3.81703V27.5864V27.8959H25.9707H28.823H29.1326V27.5864V2.60254Z" fill="#006180" stroke="#006180" stroke-width="0.619074"/>
<path id="CloudActiveLabs_4" d="M82.3258 10.0312V9.61317L81.9259 9.73519L78.9692 10.6374L78.75 10.7043V10.9334V20.3024C78.75 21.7407 78.3201 22.8044 77.4965 23.5417C76.6709 24.2785 75.7237 24.6426 74.6419 24.6426C73.5611 24.6426 72.6018 24.2791 71.7524 23.5416C70.9526 22.805 70.5338 21.7413 70.5338 20.3024V10.8293V10.5923L70.3049 10.5305L67.3482 9.73241L66.958 9.62708V10.0312V20.3024C66.958 21.8738 67.2925 23.2484 67.9743 24.4144C68.6518 25.5729 69.5742 26.4694 70.738 27.0983C71.9007 27.7265 73.2044 28.0377 74.6419 28.0377C76.0794 28.0377 77.3831 27.7265 78.5458 27.0983C79.7097 26.4694 80.632 25.5729 81.3095 24.4144C81.9913 23.2484 82.3258 21.8738 82.3258 20.3024V10.0312Z" fill="#006180" stroke="#006180" stroke-width="0.619074"/>
<path id="CloudActiveLabs_5" d="M104.04 1.36328V0.895056L103.609 1.07849L100.757 2.29298L100.568 2.37314V2.57777V11.2693C99.9152 10.6641 99.1682 10.175 98.3287 9.80235C97.2736 9.3006 96.2209 9.04539 95.1731 9.04539C93.5445 9.04539 92.0634 9.44016 90.7374 10.2334C89.4097 11.0044 88.3623 12.112 87.5954 13.5465L87.5954 13.5464L87.5935 13.55C86.8472 14.991 86.4805 16.696 86.4805 18.6545C86.4805 20.4556 86.849 22.0572 87.5955 23.4504L87.5955 23.4504L87.5975 23.4541C88.3636 24.8392 89.3851 25.9319 90.6617 26.7249L90.6617 26.7249L90.6653 26.7271C91.9443 27.4974 93.3565 27.8818 94.8949 27.8818C96.2735 27.8818 97.5057 27.519 98.5807 26.7882C99.3593 26.2703 100.023 25.6871 100.568 25.0376V27.0518V27.3614H100.878H103.73H104.04V27.0518V1.36328ZM92.6692 13.3929L92.6692 13.3929L92.6737 13.3897C93.4946 12.8079 94.4962 12.5099 95.6949 12.5099C96.713 12.5099 97.5958 12.7411 98.3535 13.1946L98.3535 13.1946L98.3568 13.1965C99.1276 13.6451 99.8542 14.2842 100.535 15.1215L100.568 18.3454L100.568 18.348C100.591 19.5297 100.367 20.5902 99.9048 21.5359C99.4399 22.4629 98.8139 23.1832 98.028 23.7058C97.2472 24.225 96.3569 24.4868 95.3471 24.4868C94.2888 24.4868 93.3633 24.2239 92.5602 23.7047C91.7729 23.1808 91.16 22.483 90.7198 21.6054C90.2783 20.7019 90.0563 19.7197 90.0563 18.6545C90.0563 17.5656 90.2785 16.5598 90.7205 15.6328C91.1843 14.7086 91.8331 13.9635 92.6692 13.3929Z" fill="#006180" stroke="#006180" stroke-width="0.619074"/>
<g id="Group 1000001846">
<g id="Group 1000001832">
<g id="Union">
<mask id="path-7-outside-2_0_1" maskUnits="userSpaceOnUse" x="32.2295" y="5.05176" width="32" height="24" fill="black">
<rect fill="white" x="32.2295" y="5.05176" width="32" height="24"/>
<path fill-rule="evenodd" clip-rule="evenodd" d="M40.7897 15.2474C40.82 11.2683 44.0898 8.05176 48.1189 8.05176C52.0707 8.05176 55.292 11.1459 55.4428 15.0191L55.4462 15.0191C58.467 14.972 60.941 17.4079 60.941 20.429C60.941 23.4172 58.5186 25.8395 55.5305 25.8395H40.5235C37.429 25.8395 34.9943 23.1967 35.2476 20.1126C35.4706 17.3978 37.7174 15.2953 40.441 15.2529L40.7897 15.2474Z"/>
</mask>
<path d="M40.7897 15.2474L40.8322 17.971L43.4933 17.9296L43.5136 15.2682L40.7897 15.2474ZM55.4428 15.0191L52.7209 15.1251L52.8245 17.7843L55.4853 17.7427L55.4428 15.0191ZM55.4462 15.0191L55.4037 12.2955L55.4036 12.2955L55.4462 15.0191ZM35.2476 20.1126L37.9624 20.3356L35.2476 20.1126ZM40.441 15.2529L40.3986 12.5293H40.3986L40.441 15.2529ZM43.5136 15.2682C43.5323 12.8112 45.56 10.7757 48.1189 10.7757V5.32783C42.6196 5.32783 38.1078 9.72532 38.0659 15.2267L43.5136 15.2682ZM48.1189 10.7757C50.6278 10.7757 52.6278 12.7341 52.7209 15.1251L58.1647 14.9132C57.9561 9.55779 53.5136 5.32783 48.1189 5.32783V10.7757ZM55.4853 17.7427L55.4887 17.7427L55.4036 12.2955L55.4002 12.2956L55.4853 17.7427ZM55.4886 17.7427C56.9886 17.7193 58.2171 18.9288 58.2171 20.429H63.665C63.665 15.8869 59.9453 12.2247 55.4037 12.2955L55.4886 17.7427ZM58.2171 20.429C58.2171 21.9128 57.0143 23.1156 55.5305 23.1156V28.5635C60.023 28.5635 63.665 24.9215 63.665 20.429H58.2171ZM55.5305 23.1156H40.5235V28.5635H55.5305V23.1156ZM40.5235 23.1156C39.0213 23.1156 37.8394 21.8327 37.9624 20.3356L32.5328 19.8897C32.1492 24.5607 35.8367 28.5635 40.5235 28.5635V23.1156ZM37.9624 20.3356C38.0706 19.0177 39.1613 17.9971 40.4835 17.9765L40.3986 12.5293C36.2735 12.5936 32.8705 15.7779 32.5328 19.8897L37.9624 20.3356ZM40.4835 17.9765L40.8322 17.971L40.7473 12.5239L40.3986 12.5293L40.4835 17.9765Z" fill="#FF5C00" mask="url(#path-7-outside-2_0_1)"/>
</g>
</g>
<path id="Rectangle 3260" d="M45.2611 26.7761H46.623V25.4141V20.5055C46.623 16.974 43.7315 14.1283 40.219 14.1283C36.7358 14.1283 33.8685 16.9502 33.8685 20.4522C33.8685 23.9448 36.6998 26.7761 40.1924 26.7761H45.2611Z" stroke="#FF5C00" stroke-width="2.72393"/>
</g>
</g>
</g>
</g>
<defs>
<filter id="filter0_d_0_1" x="-53" y="-78" width="330.439" height="967.632" filterUnits="userSpaceOnUse" color-interpolation-filters="sRGB">
<feFlood flood-opacity="0" result="BackgroundImageFix"/>
<feColorMatrix in="SourceAlpha" type="matrix" values="0 0 0 0 0 0 0 0 0 0 0 0 0 0 0 0 0 0 127 0" result="hardAlpha"/>
<feOffset dy="4"/>
<feGaussianBlur stdDeviation="14.5"/>
<feComposite in2="hardAlpha" operator="out"/>
<feColorMatrix type="matrix" values="0 0 0 0 0 0 0 0 0 0 0 0 0 0 0 0 0 0 0.08 0"/>
<feBlend mode="normal" in2="BackgroundImageFix" result="effect1_dropShadow_0_1"/>
<feBlend mode="normal" in="SourceGraphic" in2="effect1_dropShadow_0_1" result="shape"/>
</filter>
<clipPath id="clip0_0_1">
<rect width="1440" height="917" fill="white" transform="translate(-24 -53.0352)"/>
</clipPath>
</defs>
</svg>
