<svg width="31" height="31" viewBox="0 0 31 31" fill="none" xmlns="http://www.w3.org/2000/svg">
<path id="Vector" d="M26.2369 17.1388C28.7424 17.1465 30.7738 19.2139 30.7891 21.7717V26.3051C30.7739 28.8651 28.7446 30.9366 26.2369 30.9521H21.796C19.2905 30.9366 17.2653 28.8628 17.2577 26.3051V21.7717C17.2577 19.213 19.2896 17.1388 21.796 17.1388H26.2369ZM7.16493 17.1388C7.63121 17.0879 8.08507 17.3131 8.33383 17.7189C8.58259 18.1247 8.58259 18.6399 8.33383 19.0457C8.08507 19.4515 7.63121 19.6767 7.16493 19.6258H5.34127C4.17804 19.6258 3.23291 20.5842 3.22526 21.7717V26.2482C3.25484 27.4262 4.18723 28.3717 5.34127 28.3941H9.80994C10.3699 28.3979 10.9081 28.1735 11.3054 27.7707C11.7026 27.3678 11.926 26.8198 11.926 26.2482V19.5263L11.907 19.3591C11.886 18.9144 12.0993 18.486 12.4746 18.2431C12.8969 17.9697 13.4396 17.9858 13.8456 18.2837C14.2517 18.5817 14.4396 19.1016 14.3204 19.5974V26.2909C14.3204 28.8574 12.2823 30.938 9.76818 30.938H5.34127C2.84889 30.8852 0.840773 28.8352 0.789062 26.2909V21.7717C0.789062 20.5405 1.26911 19.36 2.12321 18.4907C2.97732 17.6215 4.13523 17.135 5.34127 17.1388H7.16493ZM26.2369 19.6258H21.796C20.6351 19.6258 19.6939 20.5865 19.6939 21.7717V26.3051C19.6902 26.8754 19.9105 27.4234 20.3055 27.8267C20.7005 28.2299 21.2374 28.4548 21.796 28.451H26.2369C26.7955 28.4548 27.3324 28.2299 27.7274 27.8267C28.1224 27.4234 28.3427 26.8754 28.339 26.3051V21.7717C28.339 21.2025 28.1175 20.6567 27.7233 20.2543C27.329 19.8518 26.7944 19.6258 26.2369 19.6258ZM26.2369 0.952148C28.7238 1.01243 30.7237 3.06028 30.7751 5.59924V10.1184C30.79 11.3472 30.3261 12.5316 29.4854 13.4111C28.6447 14.2906 27.4962 14.7932 26.2925 14.8081H24.455C23.8324 14.7401 23.3603 14.2038 23.3603 13.5647C23.3603 12.9255 23.8324 12.3892 24.455 12.3212H26.2369C26.8005 12.3174 27.3394 12.0843 27.734 11.6734C28.1286 11.2626 28.3464 10.708 28.3389 10.1326V5.59924C28.3239 4.42049 27.3915 3.46864 26.2369 3.45333H21.796C20.6351 3.45333 19.6939 4.41409 19.6939 5.59924V12.378L19.6794 12.5339C19.585 13.1457 19.0629 13.6077 18.441 13.6002C18.1173 13.5928 17.81 13.4534 17.5876 13.213C17.3653 12.9727 17.2465 12.6515 17.2577 12.3212V5.59924C17.254 4.36806 17.7305 3.18602 18.582 2.31411C19.4335 1.4422 20.59 0.952148 21.796 0.952148H26.2369ZM9.7821 0.952148C12.293 0.959951 14.3267 3.03596 14.3343 5.59924V10.1326C14.3343 11.3638 13.8543 12.5444 13.0002 13.4136C12.146 14.2828 10.9881 14.7693 9.7821 14.7655H5.34127C2.83573 14.7578 0.804329 12.6904 0.789063 10.1326V5.59924C0.804262 3.03917 2.83348 0.967664 5.34127 0.952148H9.7821ZM9.7821 3.45333H5.34127C4.77656 3.44188 4.23109 3.6629 3.82779 4.06658C3.4245 4.47026 3.1973 5.02264 3.19742 5.59924V10.1326C3.18593 10.7166 3.40811 11.2801 3.81268 11.6931C4.21725 12.1061 4.76924 12.3329 5.34127 12.3212H9.7821C10.3457 12.3174 10.8846 12.0843 11.2793 11.6734C11.6739 11.2626 11.8916 10.708 11.8842 10.1326V5.59924C11.8766 4.41731 10.9399 3.46108 9.7821 3.45333Z" fill="#4D47C3"/>
</svg>
