<svg width="15" height="16" viewBox="0 0 15 16" fill="none" xmlns="http://www.w3.org/2000/svg">
<g id="File and Folder / document">
<path id="Vector" d="M13.0213 6.30307C13.015 6.24781 13.0029 6.19336 12.9852 6.14064V6.08649C12.9563 6.02464 12.9177 5.96778 12.8709 5.91804L9.26125 2.30841C9.21152 2.26162 9.15466 2.22303 9.0928 2.19411C9.07484 2.19156 9.05661 2.19156 9.03865 2.19411C8.97754 2.15906 8.91004 2.13656 8.84012 2.12793H6.40362C5.92495 2.12793 5.46589 2.31808 5.12742 2.65655C4.78895 2.99502 4.5988 3.45408 4.5988 3.93275V4.53435H3.9972C3.51853 4.53435 3.05947 4.7245 2.721 5.06297C2.38253 5.40144 2.19238 5.8605 2.19238 6.33917V12.3552C2.19238 12.8339 2.38253 13.293 2.721 13.6314C3.05947 13.9699 3.51853 14.16 3.9972 14.16H8.81004C9.28871 14.16 9.74777 13.9699 10.0862 13.6314C10.4247 13.293 10.6149 12.8339 10.6149 12.3552V11.7536H11.2165C11.6951 11.7536 12.1542 11.5635 12.4927 11.225C12.8311 10.8865 13.0213 10.4275 13.0213 9.9488V6.33917C13.0213 6.33917 13.0213 6.33917 13.0213 6.30307ZM9.41165 4.1794L10.9698 5.73756H10.0133C9.8537 5.73756 9.70068 5.67418 9.58786 5.56136C9.47503 5.44853 9.41165 5.29551 9.41165 5.13596V4.1794ZM9.41165 12.3552C9.41165 12.5148 9.34827 12.6678 9.23544 12.7806C9.12262 12.8934 8.9696 12.9568 8.81004 12.9568H3.9972C3.83764 12.9568 3.68462 12.8934 3.5718 12.7806C3.45898 12.6678 3.39559 12.5148 3.39559 12.3552V6.33917C3.39559 6.17961 3.45898 6.02659 3.5718 5.91377C3.68462 5.80095 3.83764 5.73756 3.9972 5.73756H4.5988V9.9488C4.5988 10.4275 4.78895 10.8865 5.12742 11.225C5.46589 11.5635 5.92495 11.7536 6.40362 11.7536H9.41165V12.3552ZM11.8181 9.9488C11.8181 10.1084 11.7547 10.2614 11.6419 10.3742C11.529 10.487 11.376 10.5504 11.2165 10.5504H6.40362C6.24407 10.5504 6.09105 10.487 5.97822 10.3742C5.8654 10.2614 5.80202 10.1084 5.80202 9.9488V3.93275C5.80202 3.77319 5.8654 3.62017 5.97822 3.50735C6.09105 3.39452 6.24407 3.33114 6.40362 3.33114H8.20844V5.13596C8.20844 5.61462 8.39859 6.07369 8.73706 6.41216C9.07553 6.75062 9.53459 6.94077 10.0133 6.94077H11.8181V9.9488Z" fill="#4D47C3"/>
</g>
</svg>
