<svg width="25" height="25" viewBox="0 0 25 25" fill="none" xmlns="http://www.w3.org/2000/svg">
<path d="M14.867 17.1084C15.0543 16.922 15.1602 16.6691 15.1616 16.4049C15.1629 16.1407 15.0597 15.8867 14.8745 15.6984L11.3535 12.0898L14.9121 8.5685C15.0994 8.38212 15.2052 8.12922 15.2066 7.86504C15.208 7.60086 15.1048 7.34686 14.9196 7.15852C14.8271 7.0643 14.7169 6.98932 14.5953 6.93791C14.4737 6.8865 14.3431 6.85967 14.2111 6.85897C14.0791 6.85828 13.9483 6.88373 13.8262 6.93385C13.704 6.98398 13.593 7.05778 13.4996 7.15102L9.23726 11.3686C9.14304 11.461 9.06807 11.5713 9.01666 11.6928C8.96524 11.8144 8.93842 11.945 8.93772 12.077C8.93702 12.209 8.96247 12.3399 9.0126 12.462C9.06272 12.5841 9.13653 12.6951 9.22977 12.7886L13.4471 17.1009C13.5395 17.1951 13.6497 17.2701 13.7713 17.3215C13.8929 17.3729 14.0235 17.3997 14.1555 17.4004C14.2875 17.4011 14.4183 17.3757 14.5405 17.3255C14.6626 17.2754 14.7736 17.2016 14.867 17.1084Z" fill="#4D47C3"/>
</svg>
