<svg width="31" height="31" viewBox="0 0 31 31" fill="none" xmlns="http://www.w3.org/2000/svg">
<g id="Users / users">
<path id="Vector" d="M16.3164 15.9264C16.9834 15.349 17.5183 14.635 17.885 13.8326C18.2517 13.0303 18.4414 12.1585 18.4414 11.2764C18.4414 9.61876 17.7829 8.02905 16.6108 6.85695C15.4387 5.68485 13.849 5.02637 12.1914 5.02637C10.5338 5.02637 8.94409 5.68485 7.77199 6.85695C6.59989 8.02905 5.94141 9.61876 5.94141 11.2764C5.9414 12.1585 6.13116 13.0303 6.49781 13.8326C6.86447 14.635 7.39943 15.349 8.06641 15.9264C6.31658 16.7187 4.83199 17.9983 3.79013 19.612C2.74828 21.2258 2.19325 23.1055 2.19141 25.0264C2.19141 25.3579 2.3231 25.6758 2.55752 25.9103C2.79194 26.1447 3.10989 26.2764 3.44141 26.2764C3.77293 26.2764 4.09087 26.1447 4.32529 25.9103C4.55971 25.6758 4.69141 25.3579 4.69141 25.0264C4.69141 23.0372 5.48158 21.1296 6.88811 19.7231C8.29463 18.3165 10.2023 17.5264 12.1914 17.5264C14.1805 17.5264 16.0882 18.3165 17.4947 19.7231C18.9012 21.1296 19.6914 23.0372 19.6914 25.0264C19.6914 25.3579 19.8231 25.6758 20.0575 25.9103C20.2919 26.1447 20.6099 26.2764 20.9414 26.2764C21.2729 26.2764 21.5909 26.1447 21.8253 25.9103C22.0597 25.6758 22.1914 25.3579 22.1914 25.0264C22.1896 23.1055 21.6345 21.2258 20.5927 19.612C19.5508 17.9983 18.0662 16.7187 16.3164 15.9264ZM12.1914 15.0264C11.4497 15.0264 10.7247 14.8064 10.108 14.3944C9.49133 13.9823 9.01069 13.3967 8.72686 12.7114C8.44303 12.0262 8.36877 11.2722 8.51346 10.5448C8.65816 9.81735 9.01531 9.14916 9.53976 8.62472C10.0642 8.10027 10.7324 7.74312 11.4598 7.59842C12.1872 7.45373 12.9412 7.52799 13.6265 7.81182C14.3117 8.09565 14.8974 8.57629 15.3094 9.19298C15.7215 9.80966 15.9414 10.5347 15.9414 11.2764C15.9414 12.2709 15.5463 13.2248 14.8431 13.928C14.1398 14.6313 13.186 15.0264 12.1914 15.0264ZM24.3664 15.4264C25.1664 14.5255 25.6889 13.4127 25.8712 12.2218C26.0534 11.0309 25.8876 9.81271 25.3936 8.71387C24.8997 7.61502 24.0986 6.68236 23.087 6.02815C22.0753 5.37393 20.8962 5.02605 19.6914 5.02637C19.3599 5.02637 19.0419 5.15806 18.8075 5.39248C18.5731 5.6269 18.4414 5.94485 18.4414 6.27637C18.4414 6.60789 18.5731 6.92583 18.8075 7.16025C19.0419 7.39467 19.3599 7.52637 19.6914 7.52637C20.686 7.52637 21.6398 7.92146 22.3431 8.62472C23.0463 9.32798 23.4414 10.2818 23.4414 11.2764C23.4396 11.9329 23.2655 12.5775 22.9365 13.1456C22.6074 13.7138 22.135 14.1856 21.5664 14.5139C21.3811 14.6208 21.2263 14.7734 21.1169 14.9573C21.0074 15.1411 20.947 15.35 20.9414 15.5639C20.9362 15.7761 20.9851 15.9861 21.0835 16.1742C21.1819 16.3623 21.3266 16.5222 21.5039 16.6389L21.9914 16.9639L22.1539 17.0514C23.6607 17.766 24.9318 18.8964 25.8176 20.3093C26.7035 21.7222 27.1671 23.3588 27.1539 25.0264C27.1539 25.3579 27.2856 25.6758 27.52 25.9103C27.7544 26.1447 28.0724 26.2764 28.4039 26.2764C28.7354 26.2764 29.0534 26.1447 29.2878 25.9103C29.5222 25.6758 29.6539 25.3579 29.6539 25.0264C29.6641 23.1082 29.1837 21.2192 28.2582 19.5389C27.3328 17.8587 25.9931 16.443 24.3664 15.4264Z" fill="black"/>
</g>
</svg>
